<svg xmlns="http://www.w3.org/2000/svg" viewBox="0 0 750 500"><g id="freepik--background-complete--inject-475"><path d="M236.66,423.25a3,3,0,0,1,3.15,0l.81.46.84.42a3,3,0,0,1,1.76,2.61l.12,3.88,12.63-.39-.12-3.88a3,3,0,0,1,1.58-2.73,17.83,17.83,0,0,0,1.61-1,3,3,0,0,1,3.13-.2l3.41,1.83,6-11.14-3.41-1.83a3,3,0,0,1-1.57-2.72c0-.63,0-1.26-.06-1.88a3,3,0,0,1,1.39-2.83l3.29-2.05-6.66-10.74-3.31,2.06a3,3,0,0,1-3.14,0c-.26-.16-.53-.31-.81-.46l-.83-.42a3,3,0,0,1-1.76-2.61l-.12-3.88-12.63.39.12,3.87a3,3,0,0,1-1.58,2.72c-.55.31-1.09.64-1.61,1a3,3,0,0,1-3.13.2l-3.41-1.83-6,11.14,3.41,1.83a3,3,0,0,1,1.57,2.73q0,.94.06,1.89a3,3,0,0,1-1.4,2.82l-3.28,2,6.66,10.74Zm3.16-19.95a10.36,10.36,0,1,1,4.24,14A10.37,10.37,0,0,1,239.82,403.3Z" style="fill:#dbdbdb"></path><path d="M664.76,85.65a2.08,2.08,0,0,1,1,2c0,.21,0,.43,0,.65s0,.44,0,.66a2.06,2.06,0,0,1-1,1.94l-2.36,1.36,4.43,7.67,2.35-1.36a2.1,2.1,0,0,1,2.21.08,13,13,0,0,0,1.14.66,2.1,2.1,0,0,1,1.16,1.87v2.71h8.86v-2.71a2.1,2.1,0,0,1,1.16-1.87,11.66,11.66,0,0,0,1.14-.66,2.1,2.1,0,0,1,2.21-.08l2.35,1.36,4.43-7.67-2.37-1.36a2.13,2.13,0,0,1-1-2c0-.22,0-.43,0-.65s0-.44,0-.65a2.12,2.12,0,0,1,1-2l2.36-1.35-4.43-7.67L687.08,78a2.12,2.12,0,0,1-2.21-.07,11.82,11.82,0,0,0-1.15-.66,2.1,2.1,0,0,1-1.16-1.87V72.67H673.7v2.71a2.1,2.1,0,0,1-1.16,1.87,11.82,11.82,0,0,0-1.15.66,2.1,2.1,0,0,1-2.21.07l-2.34-1.35-4.43,7.67ZM678.13,81a7.26,7.26,0,1,1-7.25,7.26A7.26,7.26,0,0,1,678.13,81Z" style="fill:#dbdbdb"></path><path d="M63.16,89.84A34.48,34.48,0,1,0,97.64,55.36,34.48,34.48,0,0,0,63.16,89.84Zm18.37,0a16.11,16.11,0,1,1,16.11,16.1A16.1,16.1,0,0,1,81.53,89.84Z" style="fill:#ebebeb"></path><polygon points="91.01 56.79 104.27 56.79 103.54 47.41 91.74 47.41 91.01 56.79" style="fill:#ebebeb"></polygon><polygon points="116.25 61.26 125.63 70.64 131.74 63.48 123.4 55.14 116.25 61.26" style="fill:#ebebeb"></polygon><polygon points="130.94 82.27 130.94 95.53 140.32 94.79 140.32 83 130.94 82.27" style="fill:#ebebeb"></polygon><polygon points="126.47 107.5 117.09 116.88 124.25 123 132.59 114.66 126.47 107.5" style="fill:#ebebeb"></polygon><polygon points="105.46 122.19 92.2 122.19 92.94 131.58 104.73 131.58 105.46 122.19" style="fill:#ebebeb"></polygon><polygon points="80.22 117.72 70.85 108.35 64.73 115.5 73.07 123.84 80.22 117.72" style="fill:#ebebeb"></polygon><polygon points="65.54 96.72 65.54 83.46 56.15 84.19 56.15 95.98 65.54 96.72" style="fill:#ebebeb"></polygon><polygon points="70 71.48 79.38 62.1 72.23 55.98 63.89 64.32 70 71.48" style="fill:#ebebeb"></polygon><path d="M583.26,165a34.48,34.48,0,1,0,34.48-34.48A34.48,34.48,0,0,0,583.26,165Zm18.38,0a16.11,16.11,0,1,1,16.1,16.1A16.1,16.1,0,0,1,601.64,165Z" style="fill:#ebebeb"></path><polygon points="611.11 131.91 624.37 131.91 623.64 122.52 611.85 122.52 611.11 131.91" style="fill:#ebebeb"></polygon><polygon points="636.35 136.37 645.73 145.75 651.85 138.59 643.51 130.25 636.35 136.37" style="fill:#ebebeb"></polygon><polygon points="651.04 157.38 651.04 170.64 660.43 169.91 660.43 158.11 651.04 157.38" style="fill:#ebebeb"></polygon><polygon points="646.57 182.62 637.2 191.99 644.35 198.11 652.69 189.77 646.57 182.62" style="fill:#ebebeb"></polygon><polygon points="625.57 197.3 612.31 197.3 613.04 206.69 624.83 206.69 625.57 197.3" style="fill:#ebebeb"></polygon><polygon points="600.33 192.84 590.95 183.46 584.83 190.62 593.17 198.96 600.33 192.84" style="fill:#ebebeb"></polygon><polygon points="585.64 171.83 585.64 158.57 576.25 159.31 576.25 171.1 585.64 171.83" style="fill:#ebebeb"></polygon><polygon points="590.11 146.59 599.49 137.22 592.33 131.1 583.99 139.44 590.11 146.59" style="fill:#ebebeb"></polygon></g><g id="freepik--Floor--inject-475"><polygon points="54.54 468.29 134.65 468.04 214.77 467.96 375 467.79 535.23 467.95 615.35 468.04 695.46 468.29 615.35 468.53 535.23 468.62 375 468.79 214.77 468.62 134.65 468.53 54.54 468.29" style="fill:#263238"></polygon></g><g id="freepik--character-1--inject-475"><rect x="280.01" y="452.67" width="189.97" height="15.87" style="fill:#c7c7c7"></rect><polygon points="447.36 452.68 302.63 452.68 306.31 425.13 306.49 423.83 306.83 421.24 307 419.94 307.36 417.36 307.4 416.96 307.52 416.06 307.88 413.47 308.05 412.18 310.62 392.93 439.38 392.93 441.81 411.08 441.93 411.96 442.33 414.97 442.44 415.84 442.59 416.96 442.85 418.85 442.96 419.73 443.36 422.75 443.48 423.61 447.36 452.68" style="fill:#dbdbdb"></polygon><polygon points="442.59 416.96 308.05 412.18 310.62 392.93 439.38 392.93 442.59 416.96" style="fill:#c7c7c7"></polygon><rect x="131.27" y="71.46" width="487.45" height="331.46" style="fill:#a6a6a6"></rect><rect x="131.27" y="354.02" width="487.45" height="48.89" style="fill:#dbdbdb"></rect><path d="M382.93,375.18a8.08,8.08,0,1,1-8.07-8.07A8.07,8.07,0,0,1,382.93,375.18Z" style="fill:#37474f"></path><rect x="153.77" y="93.01" width="442.46" height="238.02" style="fill:#fff"></rect><rect x="153.77" y="93.01" width="442.46" height="238.02" style="fill:#fff"></rect><rect x="153.77" y="93.01" width="442.46" height="10.77" style="fill:#455a64"></rect><path d="M161.68,98.4a1.82,1.82,0,1,1-1.82-1.83A1.83,1.83,0,0,1,161.68,98.4Z" style="fill:#c7c7c7"></path><path d="M169.12,98.4a1.83,1.83,0,1,1-1.82-1.83A1.83,1.83,0,0,1,169.12,98.4Z" style="fill:#fff"></path><path d="M176.55,98.4a1.82,1.82,0,1,1-1.82-1.83A1.82,1.82,0,0,1,176.55,98.4Z" style="fill:#2978B5"></path><rect x="588.38" y="103.78" width="7.85" height="227.25" style="fill:#dbdbdb"></rect><path d="M592.3,197.09h0a2,2,0,0,1-2-2V107.38a2,2,0,0,1,2-2h0a2,2,0,0,1,2,2v87.68A2,2,0,0,1,592.3,197.09Z" style="fill:#a6a6a6"></path><rect x="182.48" y="249.58" width="50.3" height="81.45" style="fill:#2978B5"></rect><rect x="182.48" y="249.58" width="50.3" height="81.45" style="fill:#fff;opacity:0.7000000000000001"></rect><rect x="217.88" y="249.58" width="14.91" height="81.45" style="fill:#fff;opacity:0.5"></rect><rect x="249.43" y="187.84" width="50.3" height="143.19" style="fill:#2978B5"></rect><rect x="249.43" y="187.84" width="50.3" height="143.19" style="fill:#fff;opacity:0.7000000000000001"></rect><rect x="284.82" y="187.84" width="14.91" height="143.19" style="fill:#fff;opacity:0.5"></rect><rect x="316.38" y="234.37" width="50.3" height="96.65" style="fill:#2978B5"></rect><rect x="316.38" y="234.37" width="50.3" height="96.65" style="fill:#fff;opacity:0.7000000000000001"></rect><rect x="351.77" y="234.37" width="14.91" height="96.65" style="fill:#fff;opacity:0.5"></rect><rect x="383.32" y="155.42" width="50.3" height="175.61" style="fill:#2978B5"></rect><rect x="383.32" y="155.42" width="50.3" height="175.61" style="fill:#fff;opacity:0.7000000000000001"></rect><rect x="418.72" y="155.42" width="14.91" height="175.61" style="fill:#fff;opacity:0.5"></rect><rect x="450.27" y="183.67" width="50.3" height="147.36" style="fill:#2978B5"></rect><rect x="450.27" y="183.67" width="50.3" height="147.36" style="fill:#fff;opacity:0.7000000000000001"></rect><rect x="485.66" y="183.67" width="14.91" height="147.36" style="fill:#fff;opacity:0.5"></rect><rect x="517.22" y="130.39" width="50.3" height="200.64" style="fill:#2978B5"></rect><rect x="517.22" y="130.39" width="50.3" height="200.64" style="fill:#fff;opacity:0.7000000000000001"></rect><rect x="552.61" y="130.39" width="14.91" height="200.64" style="fill:#fff;opacity:0.5"></rect><polygon points="251.15 227.02 277.88 227.02 334.2 306.24 307.46 306.24 251.15 227.02" style="fill:#455a64"></polygon><polygon points="251.15 227.02 277.88 227.02 334.2 306.24 307.46 306.24 251.15 227.02" style="opacity:0.1"></polygon><polygon points="395.52 182.35 422.26 182.35 478.57 261.58 451.84 261.58 395.52 182.35" style="fill:#455a64"></polygon><polygon points="395.52 182.35 422.26 182.35 478.57 261.58 451.84 261.58 395.52 182.35" style="opacity:0.1"></polygon><polygon points="277.85 227.02 251.11 227.02 177.18 331.03 203.91 331.03 277.85 227.02" style="fill:#455a64"></polygon><polygon points="422.3 182.35 395.57 182.35 307.5 306.24 334.24 306.24 422.3 182.35" style="fill:#455a64"></polygon><polygon points="566.5 137.69 539.76 137.69 451.7 261.58 478.44 261.58 566.5 137.69" style="fill:#455a64"></polygon><polygon points="533.56 137.69 572.83 137.69 567.52 121.14 533.56 137.69" style="fill:#455a64"></polygon><path d="M359.5,66.73S338,53.68,314.06,73.19C285.64,96.38,290.39,180.59,288.32,188s-5.37,9.06-6.78,15.72,3.95,11.29,4.51,13.71-6.7,14.38-6.7,14.38,36.43,11.4,59.78,7.93,50.06-18.16,50.06-18.16-4.91-7.66-4.75-11.18,4.48-8,4.45-14.41-9.36-14.62-10.17-18.09,7.07-66.71,2.54-89.13S359.5,66.73,359.5,66.73Z" style="fill:#263238"></path><path d="M390.45,219.82a33.89,33.89,0,0,1-4.78-8.09,4.86,4.86,0,0,1-.32-2.44c1.39-5.07,6.07-9.4,5.46-14.93-.95-4.26-4.89-7.9-7.5-11.3-1.47-1.93-3.23-3.95-3.52-6.57,0-.92,0-1.65.08-2.46,2.08-26.32,5.25-52.92,2.12-79.27-.86-6.13-2.09-12.37-5.28-17.77,3.58,5.19,5.08,11.5,6.25,17.61,4.18,26.37,1.19,53.19-1.26,79.57-.06.75-.14,1.58-.12,2.21.25,2.11,1.79,3.9,3.05,5.65,2.72,3.72,6.61,7.41,7.47,12.15.54,5.91-4.3,10.1-6.12,15.23a4.25,4.25,0,0,0,.19,2.16,37,37,0,0,0,4.28,8.25Z" style="fill:#263238"></path><path d="M277.68,228.42c1.65-3.18,4-7.16,5.38-10.37l0-.12a7.08,7.08,0,0,0-.88-1.43c-2.76-3.76-5-8.33-4.3-13.14.61-5.64,4.73-10.25,6.82-15.15,1.51-3.38,1.43-6.92,1.51-10.55.57-30.93,2.48-83.33,27.24-104.82a32,32,0,0,1,9.53-5.6,33.85,33.85,0,0,0-9.18,6C290.44,95.5,289.06,146.85,288,177.71c-.07,3.72-.13,7.72-1.81,11.12-2.35,5.17-6.31,9.09-7.13,14.7a15.85,15.85,0,0,0,2.29,10.26c.66,1.21,1.47,2.32,2.15,3.55a1.19,1.19,0,0,1,.18.66c-1.64,3.67-4,7-6,10.42Z" style="fill:#263238"></path><path d="M447.52,288.32c-5.1,23.2-35.85,27.15-40.36,22-18.25-20.95-37-61.05-57.23-105.78-15.83-35-4.82-35.67,9.68-26C393.35,201.1,450.26,275.86,447.52,288.32Z" style="fill:#2978B5"></path><path d="M352,174.38c-1.14.71-2.3,1.4-3.48,2.06a49,49,0,0,1-6.39,3c0-.33,0-.64,0-.94A53.54,53.54,0,0,0,351,174C351.34,174.1,351.68,174.23,352,174.38Zm36.17,29.34a56.74,56.74,0,0,1-14.54,2.51,106.89,106.89,0,0,1-23.84-1.93l.1.22.33.73c10.83,1.92,21.71,2.89,32.66.79a48.81,48.81,0,0,0,6-1.57Zm37.34,56.64a44.77,44.77,0,0,0,1.71-9.86c-.26-.37-.52-.73-.79-1.09a40.44,40.44,0,0,1-3.31,14.89c-2,4.31-5.21,9.07-9.9,10.68s-8.77-1.11-11.09-5c-5.64-9.41-.83-20.91-1-31.05-.13-7.32-2.85-15.9-10.37-18.67-7-2.57-14.88,1.22-19.22,6.76-3.3,4.22-4.51,9.4-4.48,14.66l1,2.07c-.44-7.23,1.3-14.48,7.23-19.29a17.2,17.2,0,0,1,11.72-4.1,13.24,13.24,0,0,1,10.79,7.57c5,9.76.84,20.75.81,31,0,6.68,2.76,16.15,10.55,17.3C417.77,277.51,423.5,267.24,425.55,260.36Zm13.82,8.21c-1.61,1.92-3.3,3.81-5,5.63-6.93,7.27-14.66,14.28-18.91,23.57a32.45,32.45,0,0,0-3.12,14.43l1,.08a25.78,25.78,0,0,1,.71-7.79c2.56-10.47,10-18.41,17.34-25.92,2.94-3,5.79-6.08,8.5-9.26Z" style="fill:#fff;opacity:0.4"></path><path d="M447.52,288.33c-5.1,23.19-35.85,27.14-40.36,22-18.24-20.95-37-61.06-57.23-105.78-7.66-16.94-9.32-27.43-6-30.4L447.25,283.67A11,11,0,0,1,447.52,288.33Z" style="opacity:0.1"></path><path d="M414,304.93c-9.4-12.21-6.15-37.56.62-98.32.93-8.4,64.23-12.1,63.69-3.07-.68,11.37-9.8,56.62-12.42,63.34C453.08,299.75,420.42,313.22,414,304.93Z" style="fill: rgb(255, 196, 192);"></path><path d="M427.66,182.41c-12.78,10-13.32,27.08-13.32,27.08l60,15.34s3.66-15,13.56-21.46c2.43-1.58,9.07-9.2,21.36-17.35,13.93-9.26,27.37-20.74,27.85-22.7.93-3.77-4.59-7.17-15.45-3.15S491,175.66,489.65,176a8.58,8.58,0,0,1-1.42.1h0c-.61-.16-12.1-11.9-19.45-10.81S428.83,180.65,427.66,182.41Z" style="fill: rgb(255, 196, 192);"></path><path d="M473,191.24s27.91-3.91,32.21-7.91,33.75-24,34.76-27.78-4.6-7.16-15.45-3.15-30.66,15.5-32,15.88-26.19-.23-28.5.41S473,191.24,473,191.24Z" style="fill: rgb(255, 196, 192);"></path><path d="M489.07,191.26c2.89-1.09,5.73-2.3,8.58-3.5q2.12-.93,4.22-1.92c.7-.34,1.4-.68,2.09-1,.35-.17.7-.38,1-.57s.73-.49,1-.7c4.94-3.65,9.9-7.34,14.83-11.05s9.82-7.43,14.66-11.33a19.46,19.46,0,0,0,3.26-3.46,8.73,8.73,0,0,0,1.16-2.15,4,4,0,0,0,.14-2.54,3.27,3.27,0,0,0-1.71-1.86,7,7,0,0,0-2.32-.63,16.75,16.75,0,0,0-4.64.19,20.56,20.56,0,0,1,4.58.24,6.7,6.7,0,0,1,2.08.74,2.47,2.47,0,0,1,1.23,1.55c.31,1.29-.47,2.71-1.35,3.84a18.27,18.27,0,0,1-3.23,3.1c-5,3.61-9.93,7.3-14.85,11s-9.82,7.45-14.62,11.37a22,22,0,0,1-3.82,2.37c-1.35.73-2.73,1.42-4.1,2.12Z" style="fill:#263238"></path><path d="M467.81,187.59s30.58-4.4,34.88-8.39,33.75-24,34.76-27.78-4.6-7.17-15.45-3.16-30.66,15.5-32,15.88-25.4,2.28-27.71,2.92S467.81,187.59,467.81,187.59Z" style="fill: rgb(255, 196, 192);"></path><path d="M483.56,189.53c3.48-1.5,6.9-3.13,10.32-4.77,1.69-.84,3.38-1.7,5.06-2.6.84-.45,1.67-.91,2.5-1.39a23.09,23.09,0,0,0,2.4-1.65q9-6.83,18-13.77l9-7,2.22-1.78a22.89,22.89,0,0,0,2.2-1.92,12,12,0,0,0,1.84-2.38,5.14,5.14,0,0,0,.76-3.11,3,3,0,0,0-.73-1.59,3.83,3.83,0,0,0-1.36-.94,8.61,8.61,0,0,0-3-.62,26.17,26.17,0,0,0-5.75.45,33,33,0,0,0-10.66,4,35.21,35.21,0,0,1,10.77-3.18,25.36,25.36,0,0,1,5.56-.21,7.63,7.63,0,0,1,2.56.62,2,2,0,0,1,1.32,1.65,3.89,3.89,0,0,1-.69,2.28,11.25,11.25,0,0,1-1.68,2.05c-1.28,1.23-2.89,2.33-4.36,3.49l-9,6.92c-6,4.64-12,9.26-17.85,14a21.72,21.72,0,0,1-2.22,1.66c-.78.5-1.58,1-2.39,1.47-1.63,1-3.27,1.88-4.93,2.8Z" style="fill:#263238"></path><path d="M468.17,188.51s25.66-10,29.66-13.75,25-16.14,25.91-19.63-4.28-6.67-14.39-2.94-22.08,8.2-23.37,8.56-21.57,5.72-23.72,6.31S468.17,188.51,468.17,188.51Z" style="fill: rgb(255, 196, 192);"></path><path d="M475.84,188c4.42-2,8.8-4.19,13.19-6.3,2.2-1.05,4.39-2.13,6.57-3.22l1.63-.83a13.81,13.81,0,0,0,1.62-1c1-.68,2-1.39,3-2.11,3.94-2.89,7.81-5.86,11.57-9,1.89-1.55,3.76-3.12,5.6-4.74.92-.81,1.83-1.62,2.73-2.47a23.27,23.27,0,0,0,2.6-2.78,3.06,3.06,0,0,0,.6-2.29,3.18,3.18,0,0,0-1.34-1.94,9,9,0,0,0-3.73-1.4,15.8,15.8,0,0,0-7.6.55c-4.65,1.57-9.22,3.23-13.81,4.89s-9.21,3.34-13.68,5c-2.29.74-4.64,1.42-7,2.12s-4.66,1.44-7,2.24c4.82-.86,9.57-1.87,14.34-3l13.8-5c4.59-1.61,9.2-3.25,13.8-4.75a14.42,14.42,0,0,1,6.84-.54,7.49,7.49,0,0,1,3.07,1.09,1.33,1.33,0,0,1,.4,2.1,22.45,22.45,0,0,1-2.38,2.56c-.87.84-1.76,1.65-2.67,2.46-1.81,1.62-3.65,3.19-5.52,4.76-3.74,3.1-7.48,6.22-11.34,9.18-1,.73-1.93,1.46-2.92,2.15a27.74,27.74,0,0,1-3.11,1.8L488.73,181Z" style="fill:#263238"></path><path d="M480.41,246.05l-69.22-15.49s-15.61,66.56-5.72,78.19c4.43,5.2,18.67,18,30.78,15.67C464.09,319,480.41,246.05,480.41,246.05Z" style="fill:#2978B5"></path><path d="M409.17,276.24a9.73,9.73,0,0,1-5.63-2.9c0-.44.11-.86.15-1.29,2.4,2.69,5.84,4.2,9.57,2.93,4.69-1.61,7.92-6.37,9.9-10.68,4-8.85,3.76-19.1,2.76-28.56-.07-.65-.14-1.29-.22-1.93l.9.2c1,8.76,1.5,17.82-1.05,26.35C423.5,267.24,417.77,277.51,409.17,276.24ZM457.75,241l-.9-.2a119.27,119.27,0,0,1-22.51,33.42c-6.93,7.27-14.66,14.28-18.91,23.57-2.47,5.4-3.88,11.9-2.74,17.84.41.34.84.67,1.27,1a24.74,24.74,0,0,1,0-12.12c2.56-10.47,10-18.41,17.34-25.92a138.43,138.43,0,0,0,18.65-23A117.75,117.75,0,0,0,457.75,241Zm3.41,49.94c-3.52.27-6.53,2.5-8.75,5.11-5.52,6.5-5.9,14.9-8.7,22.61a26.23,26.23,0,0,1-1.61,3.6c.47-.25.92-.52,1.38-.82a56.22,56.22,0,0,0,3.26-10.18c1-4.26,2.1-8.4,4.5-12.15,2.29-3.57,5.86-7.18,10.37-7.32a8.41,8.41,0,0,1,3.25.51c.13-.26.25-.52.37-.79A9.31,9.31,0,0,0,461.16,290.92Z" style="fill:#fff;opacity:0.4"></path><path d="M410.39,248.76c7.85,1.51,15.76,2.6,23.68,3.67s15.84,2.16,23.78,3c4.49.5,9,1,13.48,1.35a.11.11,0,0,0,0-.21c-7.83-1.51-15.75-2.63-23.65-3.75s-15.84-2.17-23.78-3.14c-4.48-.54-9-1-13.48-1.35C410.23,248.35,410.16,248.72,410.39,248.76Z" style="fill:#263238"></path><path d="M411.94,230.29c-.7-.29-1.69-.61-1.73-.45-1,4.33-1.73,9-2.41,13.44s-1.24,8.7-1.74,13.07c-.27,2.35-.5,4.7-.65,7a25.11,25.11,0,0,0-2.11,9.2c0,.16.27.18.28,0a31.4,31.4,0,0,1,1.77-8.27,57.71,57.71,0,0,0,1.28,17.17s.06,0,.06,0c-1.86-8.41-.15-17.36.85-25.77.49-4.21,1.08-8.42,1.7-12.62s1.39-8.35,1.95-12.55c0,0,.74.18.89.2S412.08,230.35,411.94,230.29Z" style="fill:#263238"></path><path d="M393.43,331l-5.73-60.28s10.2-21.38-.73-39.93c-5.52-9.39-19.64-43.78-36.41-56.17-19.74-14.57-38.69-1.16-46.06,8.83-14.76,20-36.66,62.4-48.75,147.58Z" style="fill:#2978B5"></path><path d="M351,175c-.81.51-1.64,1-2.47,1.45-6.93,3.84-15.38,6.62-23.27,4.23-5.05-1.53-7.65-4.41-8.57-8,.24-.15.5-.29.76-.43a9.15,9.15,0,0,0,1.49,3.28c2.86,3.93,8.18,5.17,12.78,5.12,6.71-.08,12.85-2.79,18.52-6.21l.29.21Zm1.46,103.63c-5.76-3.63-13.59-3.11-19.45,0-7.28,3.89-11.11,12.06-12.48,19.88-1.88,10.77.62,21.69,2.1,32.52h.8c-1.43-10.38-3.76-20.85-2.24-31.16,1.29-8.74,5.58-17.95,14.25-21.41,7.22-2.87,16.94-1.75,21,5.62,5.23,9.52-1.77,21-5.58,29.66-2.33,5.34-4.09,11.37-4,17.29h.91a28,28,0,0,1,.12-3.3c.91-10.15,6.85-18.56,9.82-28.09C360.05,292.2,359.76,283.21,352.49,278.62ZM280.7,281a30.2,30.2,0,0,0-16.29,2.3c-.07.35-.15.69-.24,1.05,5.7-2.58,12.3-3.61,18.3-2.1a16,16,0,0,1,9.58,6.52c2.78,4.2,3.14,9.33,2.1,14.16-2.22,10.25-9.43,19.21-16.31,26.8-.42.47-.84.91-1.27,1.36h1.21a116.35,116.35,0,0,0,9.49-11.73c4.94-7,9.6-16,8-24.81C294,287.09,288,282.08,280.7,281ZM330,220.5c-8.64,1.32-16.56,5.34-24.4,9s-16.36,7.48-25.3,7.18c-.82,0-1.65-.1-2.48-.2l-.31.84c8.14,1.05,16.1-1.58,23.48-4.78,8.42-3.65,16.54-8.26,25.52-10.45,8.73-2.13,20.66-1.76,25,7.68,4,8.81-.52,19.08-7.21,25.14s-15.88,9.13-24.82,9.78c-16.51,1.21-31.93-5.23-47.51-10.3-.07.26-.15.52-.23.78,18.73,6,38.56,14.42,58.38,8.46,7.61-2.28,14.73-6.63,19.31-13.23,4.4-6.34,6.26-15.5,2.12-22.44C347.12,220.62,337.73,219.32,330,220.5Zm44.3-14.31c-.2,0-.4,0-.6,0-23,1.08-44.92-8.4-67.78-9.49a77.9,77.9,0,0,0-10.13.12l-.52.92a95,95,0,0,1,22,1c19,2.8,38.14,9.55,57.49,8.31C374.6,206.78,374.44,206.49,374.27,206.19Zm15.25,83.71c-7.79-11.68-15.86-23.2-19.8-36.85-2.8-9.72-3-21.67,5.58-28.6a19,19,0,0,1,6.57-3.51l-.4-.79a20.41,20.41,0,0,0-9.91,6.86c-5.78,7.38-5.15,17.75-2.69,26.27,4.12,14.27,12.71,26.29,20.83,38.53Z" style="fill:#fff;opacity:0.4"></path><path d="M333.07,265.21a136.23,136.23,0,0,1,20.09,1c3.3.45,6.56,1.05,9.83,1.73,1.63.33,3.26.61,4.9.89a21.46,21.46,0,0,0,5.18.37.12.12,0,0,1,0,.24,38.33,38.33,0,0,1-4.9.47,36.31,36.31,0,0,1-4.77-.34c-3.35-.43-6.69-1-10-1.48-6.76-.93-13.52-1.86-20.34-2.3C332.74,265.75,332.75,265.22,333.07,265.21Z" style="fill:#263238"></path><path d="M317.34,273a146.34,146.34,0,0,1,16.38-2.68c2.75-.28,5.5-.41,8.27-.46,1.33,0,2.65,0,4,0s2.91.23,4.37.22c.15,0,.18.24,0,.24-1.37,0-2.74.32-4.11.44s-2.75.24-4.12.36c-2.75.25-5.5.53-8.25.75-5.51.45-11,1-16.48,1.58A.23.23,0,0,1,317.34,273Z" style="fill:#263238"></path><path d="M301.8,184.18c-39.36,39-89.25,121.51-80.31,138.44,10,18.85,64.79-35.87,64.61-39.1-.13-2.45,19.5-52.66,34.37-89.17S311.54,174.53,301.8,184.18Z" style="fill: rgb(255, 196, 192);"></path><path d="M286.47,283.58c1.71-5.37,28.39-71.58,36-92.52,6.87-18.8,3.45-26.58-12.36-15.06-29.12,21.22-87,86.6-98,120.63-10.57,32.78,16.67,35.77,39.18,20.86C269.75,305.27,286.47,283.58,286.47,283.58Z" style="fill:#2978B5"></path><path d="M280.7,281a19,19,0,0,1,6,2l-.24.67-.07.1a17.3,17.3,0,0,0-3.92-1.48c-7.76-2-16.54.36-23.06,4.76-8.32,5.61-14.43,13.83-21.76,20.56-6,5.54-12.81,9.71-21.08,10.65a27,27,0,0,1-4.93.13,8.58,8.58,0,0,1-.42-.92,24.87,24.87,0,0,0,4.88,0c9.09-.91,16.29-5.9,22.69-12.1,6.78-6.57,12.74-14.29,20.77-19.44A31.35,31.35,0,0,1,280.7,281Zm-25.09-31a71.49,71.49,0,0,0-15-1.37c-.22.29-.44.59-.67.88,10.54-.38,21,2.26,31,5.43,7.73,2.45,15.65,5.36,23.68,7.53.1-.23.18-.45.27-.68C281.73,258.23,268.88,252.53,255.61,250Zm24.66-13.31c-4.85-.17-10.1-1.48-13.61-5a14.16,14.16,0,0,1-3.78-10.07c-.28.33-.57.64-.85,1a15,15,0,0,0,3.65,9.34c2.89,3.19,7.16,4.76,11.32,5.37,8.31,1.22,16.43-1.46,24-4.72,2.24-1,4.47-2,6.71-3.07l.46-1.18-2.56,1.21C297.65,233.18,289.21,237,280.27,236.68Zm25.62-39.94a67.8,67.8,0,0,0-21.6,2.09L283,200.16l1.19-.37c10.75-3.09,22.15-2.64,33.12-1,.74.11,1.49.22,2.23.35.11-.27.21-.54.31-.81A118.14,118.14,0,0,0,305.89,196.74ZM319,175.52a9.09,9.09,0,0,1-1.61-3.85c-.25.1-.52.23-.79.36.77,3.88,3.36,7,8.72,8.64l.17.05c.06-.29.1-.58.14-.86A12.13,12.13,0,0,1,319,175.52Z" style="fill:#fff;opacity:0.4"></path><path d="M283.06,292.14a776.66,776.66,0,0,1,29.26-74.51,777.69,777.69,0,0,1-29.26,74.51Z" style="fill:#263238"></path><path d="M306.91,232.15a32.36,32.36,0,0,1,5.8-8.78,23.36,23.36,0,0,1-5.8,8.78Z" style="fill:#263238"></path><path d="M222.14,322.23c10.58,11,34.52,9.74,95.1,12.14,8.38.33,26.64-58.2,17.7-59-11.25-1-55.14-2.56-58.37-2.27C249.38,275.55,215,314.74,222.14,322.23Z" style="fill: rgb(255, 196, 192);"></path><path d="M325.57,277.51s22.76-6.88,35.84-6.79c17.51.13,32.58,7.44,38.71,10.89,12.8,7.19,38.77,33.43,32.51,42.23-5.66,8-30.85-20.2-30.85-20.2s30.42,24.48,21.84,32.81-35.95-26-35.95-26,30.69,25.85,20.48,33.05c-7.71,5.44-34.26-24.28-34.26-24.28s26.22,22.4,18.53,28.33c-8.5,6.56-34.73-19.34-34.73-19.34-22.09,11.8-37.43,8.38-48.05,4.64C307.06,331.93,325.57,277.51,325.57,277.51Z" style="fill: rgb(255, 196, 192);"></path><path d="M391.81,294.5c3.67,2.75,7.41,5.5,10.83,8.56s6.74,6.25,9.86,9.62c7.65,8.26,11.15,14.63,10.89,14.26-6.12-8.75-18.2-19.9-21.62-23s-6.67-6.28-10.09-9.34C391.6,294.55,391.72,294.43,391.81,294.5Z" style="fill:#263238"></path><path d="M380.52,306.65c4.54,3.71,9.19,7.23,13.57,11.14s8.16,8,12.24,12.15c.31.32,0,.38-.29.07-4.25-4-8.48-7.4-12.77-11.37s-8.43-8.1-12.85-11.89C380.35,306.69,380.45,306.59,380.52,306.65Z" style="fill:#263238"></path><path d="M369,315.34c7.23,5.31,13.48,12,19.45,18.61.29.34-.07.38-.4.06-6.34-6.32-11.28-11.31-19.24-18.42C368.65,315.48,368.8,315.22,369,315.34Z" style="fill:#263238"></path><path d="M324.06,268.35l-42.22,78.24s-59.91-12-67.36-24.25c-5.32-8.77,31-45.85,61-49.56Z" style="fill:#2978B5"></path><path d="M287.27,319.31a117.49,117.49,0,0,1-9.71,12c-3.47,3.75-7.46,7-10.9,10.75-.29.32-.56.63-.82,1l-.92-.23a24,24,0,0,1,2-2.22c3.59-3.68,7.49-7,11-10.86,6.88-7.59,14.09-16.55,16.31-26.8,1-4.83.68-10-2.1-14.16a16,16,0,0,0-9.58-6.52c-7.76-2-16.54.36-23.06,4.76-8.32,5.61-14.43,13.83-21.76,20.56-6,5.54-12.81,9.71-21.08,10.65-.78.09-1.56.15-2.36.18a6.23,6.23,0,0,1,.26-.88c.54,0,1.09-.06,1.63-.12,9.09-.91,16.29-5.9,22.69-12.1,6.78-6.57,12.74-14.29,20.77-19.44A31.35,31.35,0,0,1,280.7,281c7.28,1.13,13.25,6.14,14.58,13.55C296.87,303.34,292.21,312.33,287.27,319.31Z" style="fill:#fff;opacity:0.4"></path><path d="M241.64,289.71c3.76-4.63,16.54-14.59,33.86-17,.15,0,.22.21.07.25-12.73,3-29.77,12.76-33.77,16.91C241.7,290,241.54,289.83,241.64,289.71Z" style="fill:#263238"></path><path d="M272.47,332.24c3.47-7.86,7.36-15.53,11.27-23.18s7.81-15.33,11.91-22.89c2.32-4.27,4.62-8.56,7.08-12.75.07-.11.27,0,.21.09-3.46,7.85-7.32,15.54-11.17,23.2s-7.81,15.34-11.83,23q-3.39,6.45-7.08,12.75C272.74,332.62,272.37,332.47,272.47,332.24Z" style="fill:#263238"></path><path d="M324,267.6a76.24,76.24,0,0,0-10,.38c-3.33.26-6.67.58-10,.92-6.62.68-20.72,1.38-32.44,4.56-.13,0,.71.48.83.44,5.5-1.8,47.63-4.57,51-5.22a4.79,4.79,0,0,0-.17.77c0,.17.19.34.33.18.34-.39.54-.81.84-1.22A.48.48,0,0,0,324,267.6Z" style="fill:#263238"></path><path d="M324.37,175.5c.54,2.73,11.62,19.76,23.89,17.54,8.64-1.57,6.1-19,6.1-19l6.34-24.21-30-20.55S324.16,174.35,324.37,175.5Z" style="fill: rgb(255, 196, 192);"></path><path d="M328.44,145.12a47.78,47.78,0,0,0,26.27,27.58l6-22.85-30-20.56S329.69,136.44,328.44,145.12Z" style="fill:#263238"></path><path d="M393.1,112.1c5.5,40.62-18.25,48.49-27,49.66-8,1.06-35.23,3.67-44.91-36.17s7.5-55.23,25.59-58.62S387.59,71.47,393.1,112.1Z" style="fill: rgb(255, 196, 192);"></path><path d="M385.05,107.56a27,27,0,0,1-2.82-.43,4.59,4.59,0,0,1-2.79-1,1.47,1.47,0,0,1-.1-1.78,3.65,3.65,0,0,1,3.53-1.06,5.37,5.37,0,0,1,3.46,1.69A1.57,1.57,0,0,1,385.05,107.56Z" style="fill:#263238"></path><path d="M356.84,110.48c1-.17,1.81-.49,2.74-.75a4.6,4.6,0,0,0,2.66-1.3,1.45,1.45,0,0,0-.11-1.78,3.64,3.64,0,0,0-3.63-.64,5.31,5.31,0,0,0-3.23,2.08A1.56,1.56,0,0,0,356.84,110.48Z" style="fill:#263238"></path><path d="M363.41,119.17c0-.1-.21.15-.19.27.31,2.78.21,6-2.25,7.16-.07,0-.05.18,0,.16C364.06,126.07,364.16,121.76,363.41,119.17Z" style="fill:#263238"></path><path d="M360.67,116.46c-4.53,0-4.14,9.06.06,9S364.47,116.44,360.67,116.46Z" style="fill:#263238"></path><path d="M358.91,117c-.77.55-1.5,1.48-2.45,1.62s-2-.76-2.73-1.64c-.08-.09-.16,0-.15.11,0,1.74.79,3.48,2.66,3.66,1.71.17,2.86-1.42,3.22-3.18C359.52,117.26,359.22,116.79,358.91,117Z" style="fill:#263238"></path><path d="M379.5,117.57c0-.11.22.12.22.24,0,2.8.5,6,3.07,6.85.08,0,.08.17,0,.16C379.66,124.49,379.06,120.22,379.5,117.57Z" style="fill:#263238"></path><path d="M381.9,114.55c4.51-.49,5.18,8.53,1,9S378.13,115,381.9,114.55Z" style="fill:#263238"></path><path d="M383.83,115c.75.42,1.52,1.24,2.38,1.23s1.65-1,2.22-2c.05-.1.13,0,.14.09.18,1.72-.26,3.56-1.89,4s-2.72-1-3.26-2.68C383.32,115.34,383.53,114.84,383.83,115Z" style="fill:#263238"></path><path d="M363.6,141.4c.64.69,1.28,1.62,2.29,1.74a7.46,7.46,0,0,0,3.05-.58.1.1,0,0,1,.11.15,3.81,3.81,0,0,1-3.62,1.38,3,3,0,0,1-2.11-2.57C363.28,141.36,363.5,141.31,363.6,141.4Z" style="fill:#263238"></path><path d="M375.15,131.07s.66,4.18.69,6.15c0,.19-.47.28-1.14.34,0,0-.05,0-.08,0a9.42,9.42,0,0,1-9.19-3.35c-.14-.19.1-.4.29-.28a14.18,14.18,0,0,0,8.63,2.31c.13-.55-1.36-7.12-1.05-7.14,1.08-.12,3.22.58,4.51.93-1.11-8.73-3.61-17.23-4.59-25.94a.27.27,0,0,1,.52-.14c3.25,8.72,4.75,18.74,6.13,27.74C380.05,132.81,376,131.39,375.15,131.07Z" style="fill:#263238"></path><path d="M373.42,136.93a10,10,0,0,1-3.79,3.28,4.45,4.45,0,0,1-2.69.32c-2-.41-2.13-2.2-1.86-3.75a10.5,10.5,0,0,1,.75-2.4A12.8,12.8,0,0,0,373.42,136.93Z" style="fill:#263238"></path><path d="M369.63,140.21a4.45,4.45,0,0,1-2.69.32c-2-.41-2.13-2.2-1.86-3.75C367.19,136.88,369.34,138.19,369.63,140.21Z" style="fill:#ff9cbd"></path><path d="M323.73,128c7.43,1.1,9.71-15.91,9.71-15.91s31.84-4.69,35.09-30.46c0,0,7.15,16.14,23.6,24,0,0-3.55-32-25.88-38,0,0-24.52-9.28-41.88,12.16C306.58,101.69,318.75,127.24,323.73,128Z" style="fill:#263238"></path><path d="M368.68,79.7A28,28,0,0,1,367,91.46a29.09,29.09,0,0,1-6.21,10.3,25.52,25.52,0,0,1-2.19,2.1l-1.12,1c-.4.3-.82.59-1.23.88-.84.56-1.65,1.16-2.5,1.69s-1.79.93-2.69,1.37c-.45.22-.89.46-1.34.66l-1.41.51-2.82,1c-1.92.49-3.87.88-5.81,1.24,1.84-.75,3.72-1.31,5.52-2.07l2.65-1.22,1.33-.61c.42-.23.83-.5,1.24-.74.83-.51,1.65-1,2.49-1.48s1.54-1.15,2.31-1.72l1.16-.86,1-1a24.34,24.34,0,0,0,2.05-2A33.62,33.62,0,0,0,365.73,91a34.8,34.8,0,0,0,1.9-5.48A32.88,32.88,0,0,0,368.68,79.7Z" style="fill:#263238"></path><path d="M329.67,125s-9.57-12.35-15.22-8.89,2,21.67,8.91,23.88a6.94,6.94,0,0,0,9.11-4.16Z" style="fill: rgb(255, 196, 192);"></path><path d="M316.76,121.29c-.11,0-.12.15,0,.19,4.88,1.7,7.61,6,9.59,10.52-1.5-1.7-3.49-2.58-5.78-.78-.12.1,0,.29.15.25a4.26,4.26,0,0,1,4.76,1.27,20.21,20.21,0,0,1,2.43,3.68c.25.42,1,.15.82-.33,0,0,0-.07,0-.11C328.49,129.89,323.34,121.6,316.76,121.29Z" style="fill:#263238"></path></g><g id="freepik--speech-bubble-1--inject-475"><polygon points="383.62 25.14 383.62 60.98 388.65 60.98 388.65 69.67 397.34 60.98 445.05 60.98 445.05 25.14 383.62 25.14" style="fill:#fff"></polygon><path d="M383.62,25.14l.3,35.84-.3-.3,5,0H389V61l0,8.69-.63-.26L397,60.68c.15-.16.11-.13.3-.13l47.71-.06-.49.49.07-35.84.42.43c-15.31-.06-46.12-.3-61.43-.43Zm0,0c15.53-.13,46.33-.37,61.86-.43v.43L445.54,61v.49h-.49c.11-.17-48.82.2-47.41-.19l-8.73,8.65-.64.64v-.9l0-8.69.33.32-5,0h-.3V61l.3-35.84Z" style="fill:#263238"></path><path d="M426,43.06a2.91,2.91,0,1,0,2.91-2.91A2.91,2.91,0,0,0,426,43.06Z" style="fill:#263238"></path><path d="M411.42,43.06a2.92,2.92,0,1,0,2.91-2.91A2.91,2.91,0,0,0,411.42,43.06Z" style="fill:#263238"></path><path d="M396.9,43.06a2.91,2.91,0,1,0,2.91-2.91A2.91,2.91,0,0,0,396.9,43.06Z" style="fill:#263238"></path></g><g id="freepik--Plant--inject-475"><path d="M103.51,285.63S77.83,282,83.83,251C83.83,251,112.52,257.48,103.51,285.63Z" style="fill:#2978B5"></path><path d="M103.51,285.63S77.83,282,83.83,251C83.83,251,112.52,257.48,103.51,285.63Z" style="opacity:0.1"></path><path d="M102.21,279.16a47.64,47.64,0,0,0-1.75-4.62c0-.2,0-.4-.06-.59,0-.42-.08-.85-.11-1.28-.07-.92-.13-1.85-.19-2.77-.11-1.86-.22-3.71-.25-5.56a.08.08,0,0,0-.16,0c0,1.86,0,3.71,0,5.56,0,.93.09,1.86.15,2.78,0,.21,0,.41,0,.62a54.83,54.83,0,0,0-5.14-8.8c-.89-1.24-1.81-2.42-2.81-3.56s-2.11-2.29-3.14-3.45c-.07-.08-.18,0-.11.11a46,46,0,0,1,5,6.58c.78,1.18,1.51,2.39,2.22,3.63l-.24-.1-.92-.37-2.09-.79L88.5,265c-.09,0-.14.11-.06.15,1.36.54,2.72,1.12,4.06,1.7l2,.85,1,.42a3.23,3.23,0,0,0,.68.24c.51.93,1,1.86,1.5,2.81a66.74,66.74,0,0,1,3.14,7.4l.18.53a13.93,13.93,0,0,0-2.1-1l-2.66-1.21c-1.8-.83-3.59-1.67-5.31-2.64-.09-.05-.17.08-.08.13,1.76,1,3.49,2,5.26,2.95.88.48,1.77.95,2.68,1.39a8.38,8.38,0,0,0,2.41,1,30.32,30.32,0,0,1,1.68,7.28c.29,3.51.26,7,.34,10.55a0,0,0,1,0,.09,0c.26-3.18.4-6.4.41-9.6A27.74,27.74,0,0,0,102.21,279.16Z" style="fill:#263238"></path><path d="M98.26,260.93A31.24,31.24,0,0,0,98,266.4c0,.05.08,0,.08,0,.1-1.81.12-3.62.33-5.42C98.42,260.87,98.27,260.83,98.26,260.93Z" style="fill:#263238"></path><path d="M90.92,262.48a19.51,19.51,0,0,1-3.31-1.62c-.08-.06-.16.08-.07.14a12.76,12.76,0,0,0,3.33,1.59C90.94,262.61,91,262.51,90.92,262.48Z" style="fill:#263238"></path><path d="M104.33,334.83c0-2.83-.08-5.67-.11-8.51,0-9.42-.13-18.84-.3-28.26q-.19-11.22-.52-22.44s0-.07-.07-.1l0-6.12c0-.06-.06-.08-.12-.08s-.13,0-.13.08l0,6.14a.11.11,0,0,0-.06.09c-.38,13.31-.72,26.62-.8,39.94,0,2.7,0,5.41,0,8.12q-.14,13-.1,26c0,1.39,0,2.77,0,4.15,0,7.94.08,15.88.08,23.83,0,.43.48.64,1,.66s1.19-.21,1.19-.7c0-8.76.06-17.52.06-26.27C104.35,345.88,104.37,340.35,104.33,334.83Z" style="fill:#263238"></path><path d="M93.6,326.21s-12.34-9.15-24.06-3-13.56,30-13.56,30,17.21,2.46,28.05-7.85C94.47,335.47,93.6,326.21,93.6,326.21Z" style="fill:#2978B5"></path><path d="M97,326.78a14.71,14.71,0,0,0-7.15-.93,9.66,9.66,0,0,0-1.52-.15l-1.74-.13c-1.2-.1-2.4-.17-3.6-.26-2.43-.18-4.88-.33-7.31-.57-.09,0-.1.14,0,.15,2.41.31,4.81.65,7.22.89,1.24.13,2.48.26,3.73.35l.9.09c-.37.08-.74.16-1.1.27a29.38,29.38,0,0,0-5.59,2.27c-1,.18-1.94.45-2.9.67-1.52.36-3,.76-4.56,1.15-3,.79-6,1.67-9,2.54a.08.08,0,0,0,.05.15c3-.73,6-1.4,8.94-2.11,1.45-.34,2.9-.68,4.34-1l1.14-.26a36.1,36.1,0,0,0-8.78,7.63,48.29,48.29,0,0,0-6.1,9.62c0,.09.08.18.13.09a46.74,46.74,0,0,1,7.39-9.69c-.06.16-.11.33-.16.49l-.69,2.18c-.46,1.46-.92,2.91-1.36,4.37,0,.1.12.13.16,0,.52-1.41,1-2.83,1.51-4.25l.73-2.08c.13-.36.25-.72.37-1.09l.12-.33a44.06,44.06,0,0,1,4.38-3.73,33.08,33.08,0,0,1,6.56-3.76c0,.22-.09.43-.13.63-.12.57-.25,1.13-.36,1.69-.24,1.17-.47,2.35-.7,3.52-.46,2.39-.75,4.81-1.2,7.2,0,.1.13.13.15,0,.56-2.41,1.27-4.77,1.81-7.18.26-1.21.53-2.41.79-3.62.11-.56.22-1.13.34-1.69.06-.32.14-.63.17-.95l.67-.28c3.24-1.19,6.82-2.07,10.28-1.4a10.1,10.1,0,0,1,7.43,5.95c.11.27.54.1.47-.17C102.16,330.12,99.68,327.92,97,326.78Z" style="fill:#263238"></path><path d="M78.07,337l-1,4.69a35.38,35.38,0,0,0-.86,4.57c0,.06.08.06.1,0a34.42,34.42,0,0,0,1-4.6c.3-1.55.61-3.09.91-4.64A.08.08,0,0,0,78.07,337Z" style="fill:#263238"></path><path d="M66.12,340.93c-1.57.8-3.1,1.71-4.74,2.36a.08.08,0,1,0,.07.14A50,50,0,0,0,66.16,341S66.16,340.91,66.12,340.93Z" style="fill:#263238"></path><path d="M96.38,309.41s-15.09,1-22.11-9-5.45-24.17-5.45-24.17,15.86,1.93,22.15,9.08S96.38,309.41,96.38,309.41Z" style="fill:#2978B5"></path><path d="M103.47,324.3c-.53-1.61-1.18-3.21-1.78-4.79s-1.22-3-1.88-4.52a91.83,91.83,0,0,0-4.53-8.9c-1.06-1.83-2.2-3.61-3.38-5.37,0-.26-.08-.53-.12-.8-.07-.47-.13-.93-.21-1.4-.15-1-.31-1.91-.47-2.86-.35-2.09-.78-4.16-1.11-6.24,0-.1-.17-.1-.16,0,.31,2.06.51,4.13.8,6.19.14,1,.28,2,.43,3,0,.36.11.73.17,1.09a108.92,108.92,0,0,0-7.47-9.68c-.36-.42-.73-.82-1.1-1.23a2.55,2.55,0,0,0-.14-.35l-.33-.86-.65-1.8c-.42-1.19-.8-2.38-1.12-3.59,0-.1-.18-.05-.15,0,.3,1.24.62,2.48,1,3.7.17.59.36,1.18.57,1.76,0,.09.07.19.11.29-1.93-2.11-3.94-4.13-6-6.13-.08-.08-.18,0-.11.11a108.34,108.34,0,0,1,10.69,13.1,9,9,0,0,0-1.11-.28c-1.17-.23-2.34-.39-3.51-.54-2.46-.32-4.91-.63-7.36-1-.1,0-.14.13,0,.15,2.34.46,4.66,1,7,1.52,1.09.25,2.19.47,3.3.68a21.72,21.72,0,0,1,2.65.76c.24.35.49.69.74,1q1.65,2.43,3.21,4.92l-1.54-.3q-1.75-.35-3.51-.63c-2.3-.38-4.61-.78-6.88-1.3-.1,0-.14.13,0,.15,2.31.54,4.59,1.18,6.89,1.79q1.65.43,3.33.81l1.68.36a4.65,4.65,0,0,0,.68.12q3.3,5.36,6.19,11,1.26,2.46,2.44,5c.8,1.71,1.49,3.46,2.24,5.2C103,324.83,103.59,324.68,103.47,324.3Z" style="fill:#263238"></path><path d="M88,289.61c-.29-1.43-.59-2.87-.91-4.3a.08.08,0,0,0-.15,0c.28,1.42.55,2.83.81,4.25s.46,2.85.86,4.23c0,0,.05,0,0,0A30.17,30.17,0,0,0,88,289.61Z" style="fill:#263238"></path><path d="M79.21,289.19c-.7-.34-1.44-.63-2.17-.91-.38-.15-.76-.29-1.14-.45l-.58-.23a2.82,2.82,0,0,1-.64-.28c-.12-.08-.19.11-.07.13a3,3,0,0,1,.64.27l.57.25,1.1.49a20.31,20.31,0,0,0,2.23.89A.09.09,0,0,0,79.21,289.19Z" style="fill:#263238"></path><path d="M111.83,297.54s9.14-17.06,23-19.7,22.4,11.65,22.4,11.65-10.13,12.95-22.88,15.21S111.83,297.54,111.83,297.54Z" style="fill:#2978B5"></path><path d="M144.18,285.49a37.57,37.57,0,0,0-10.9.12l.62-.33c1-.52,2-1,3.08-1.59a71.54,71.54,0,0,1,6.53-3.18.08.08,0,1,0-.07-.14c-2.17,1-4.43,1.86-6.61,2.86-1.09.5-2.16,1-3.22,1.59-.69.36-1.45.7-2.12,1.14a38,38,0,0,0-8.83,2.93L124.4,287c1.29-1.42,2.56-2.91,4-4.2.07-.07,0-.17-.12-.11-1.45,1.32-3,2.55-4.4,3.92-.68.67-1.34,1.36-2,2.07-.32.35-.64.72-.94,1.1a36.55,36.55,0,0,0-18.63,25.15c0,.1.12.15.14.05a42,42,0,0,1,10.22-17.28,40.12,40.12,0,0,1,18.62-10.77,40.59,40.59,0,0,1,12.85-1.17A.14.14,0,0,0,144.18,285.49Z" style="fill:#263238"></path><path d="M157.27,289.5s-10.14,12.94-22.9,15.2c-9.72,1.72-17.73-3.35-21-5.85l-.7-1.15s6.58-5.55,19-8.75S157.27,289.5,157.27,289.5Z" style="opacity:0.1"></path><path d="M136.11,279.4a33.66,33.66,0,0,0-3.09,2,18.87,18.87,0,0,0-2.68,2.45.08.08,0,0,0,.12.11c.92-.8,1.85-1.6,2.81-2.36a30.52,30.52,0,0,1,2.92-2.11C136.27,279.48,136.19,279.35,136.11,279.4Z" style="fill:#263238"></path><path d="M143.73,282.29l-1.55.61-1.55.65c-.11,0-.06.22.05.18l1.55-.63c.52-.21,1-.45,1.55-.66C143.87,282.4,143.82,282.25,143.73,282.29Z" style="fill:#263238"></path><path d="M110,319s2.44,16.92,15.17,22.84,28.24,0,28.24,0S147.32,305.24,110,319Z" style="fill:#2978B5"></path><path d="M144.65,330.85c-1.17-.13-2.34-.33-3.5-.54l-1.71-.33-.9-.18c-.34-.31-.68-.64-1-.95a51.92,51.92,0,0,0-7.78-5.64,43.72,43.72,0,0,0-4.67-2.4h.24l4.19.18c2.8.13,5.59.19,8.38.38.1,0,.1-.15,0-.16-2.8-.19-5.59-.5-8.39-.74l-4.07-.36-2.1-.18-.53-.06c-.73-.27-1.46-.53-2.2-.76a19.78,19.78,0,0,0-10.78-.59c-3.2.82-6.4,2.91-7.23,6.29,0,.12.15.2.2.08,1.2-2.82,4.33-4.24,7.16-4.83a17.14,17.14,0,0,1,5.76-.11,14.31,14.31,0,0,0,.64,2.56c.35,1.19.7,2.38,1.06,3.57.72,2.38,1.52,4.73,2.22,7.11a.08.08,0,1,0,.15,0c-.59-2.38-1.09-4.77-1.66-7.15-.28-1.17-.58-2.34-.87-3.5a18.71,18.71,0,0,0-.64-2.41,30.62,30.62,0,0,1,3.31.78,49.31,49.31,0,0,1,5.77,2.11c.18,1.21.45,2.4.73,3.59.35,1.5.73,3,1.21,4.44a.07.07,0,0,0,.14,0l-.06-.28h0c-.29-1.38-.59-2.76-.88-4.14-.24-1.12-.45-2.24-.7-3.35,1.58.71,3.14,1.49,4.64,2.35,0,.35.12.7.17,1,.09.58.2,1.16.3,1.74.24,1.3.5,2.61.81,3.9a62.81,62.81,0,0,0,2.19,7.36.09.09,0,0,0,0,.1l.08.08c0,.06.14,0,.12-.08-.58-2.51-1.26-5-1.81-7.51-.27-1.26-.55-2.52-.8-3.78-.13-.63-.24-1.26-.36-1.89,0-.18-.06-.37-.09-.57a52.64,52.64,0,0,1,4.95,3.31,53.57,53.57,0,0,1,7.59,6.92c.09.1.27,0,.19-.15-1-1.27-1.94-2.52-3-3.7-.64-.69-1.3-1.35-2-2l.21,0,1.8.27c1.17.16,2.35.27,3.53.41C144.71,331,144.75,330.86,144.65,330.85Z" style="fill:#263238"></path><path d="M135.71,336.59h0c0-.15-.05-.29-.08-.44s-.12-.36-.15-.55h0c-.27-1.13-.49-2.27-.69-3.41a.07.07,0,0,0-.14,0,13.74,13.74,0,0,0,1,4.42s.1,0,.09,0Z" style="fill:#263238"></path><path d="M125.05,336.32a.07.07,0,0,0-.07-.07c-.36-1.5-.7-3-1-4.51-.16-.79-.33-1.58-.48-2.38l-.24-1.29A3.77,3.77,0,0,0,123,327a.09.09,0,0,0-.15,0,7.69,7.69,0,0,0,.32,2.27c.16.82.32,1.65.5,2.47q.55,2.5,1.26,5c0,.09.18.07.17,0Z" style="fill:#263238"></path><path d="M143.49,326c-2.32-.32-4.65-.66-7-.94-.09,0-.13.14,0,.15,2.32.35,4.65.63,7,.94C143.55,326.14,143.59,326,143.49,326Z" style="fill:#263238"></path><path d="M103.49,279.32s-7.79-34.17,28.92-48C132.41,231.32,142.58,276.3,103.49,279.32Z" style="fill:#2978B5"></path><path d="M111.41,259.94l.4-.24,2.07-1.16,4.26-2.38c2.8-1.57,5.57-3.2,8.39-4.73.09-.05,0-.18-.08-.13-2.83,1.53-5.71,3-8.55,4.47L113.69,258l-1.72.91c1.23-2.33,2.54-4.6,4-6.8,1.92-2.92,4-5.71,6.21-8.44a.12.12,0,0,0-.18-.17,58.27,58.27,0,0,0-8.49,10.41c0-.12,0-.25,0-.36,0-.85.06-1.7.07-2.55,0-1.67,0-3.34,0-5a.08.08,0,0,0-.16,0c-.07,1.64-.27,3.28-.36,4.92,0,.82-.08,1.64-.11,2.46,0,.44,0,.94,0,1.43-.76,1.2-1.49,2.42-2.17,3.66a61.17,61.17,0,0,0-3.28,6.88c0-.85-.09-1.7-.14-2.55-.11-1.87-.34-3.74-.42-5.61,0-.1-.16-.09-.16,0,0,1.87,0,3.74,0,5.61,0,.94.06,1.87.12,2.81,0,.34,0,.69.07,1a63,63,0,0,0-2.78,9.39,102.23,102.23,0,0,0-1.36,10.32s0,0,0,0a55.54,55.54,0,0,1,1.94-9.2q.69-2.43,1.45-4.81c1.53-.72,3-1.62,4.47-2.44s3.07-1.68,4.61-2.52c3.06-1.68,6.12-3.39,9.28-4.87.09,0,0-.18-.09-.14-3.2,1.45-6.42,2.83-9.56,4.41-1.57.79-3.11,1.63-4.63,2.49-1.28.71-2.59,1.43-3.81,2.26.36-1.06.73-2.12,1.14-3.17A90.85,90.85,0,0,1,111.41,259.94Z" style="fill:#263238"></path><path d="M108.32,252.13c0-.1-.17-.1-.16,0,.13,2,.2,3.9.41,5.84a.09.09,0,0,0,.17,0C108.67,256,108.46,254.08,108.32,252.13Z" style="fill:#263238"></path><path d="M125.92,258.66c-2.3.92-4.62,1.8-6.9,2.76-.07,0,0,.13,0,.1,2.32-.87,4.61-1.81,6.91-2.71C126.06,258.77,126,258.62,125.92,258.66Z" style="fill:#263238"></path><path d="M129.41,242.9a59.3,59.3,0,0,0-6.53,3.5c-.11.06,0,.23.1.17,2.13-1.25,4.3-2.44,6.51-3.54C129.58,243,129.5,242.85,129.41,242.9Z" style="fill:#263238"></path><rect x="75.91" y="353.21" width="52.94" height="55.81" style="fill:#455a64"></rect><rect x="72.27" y="372.95" width="2.71" height="95.59" style="fill:#263238"></rect><rect x="129.5" y="372.95" width="2.71" height="95.59" style="fill:#263238"></rect><rect x="102.33" y="372.95" width="2.71" height="95.59" style="fill:#263238"></rect><rect x="73.62" y="405.44" width="57.24" height="7.73" style="fill:#263238"></rect></g></svg>